<svg width="223" height="110" version="1.1" xmlns="http://www.w3.org/2000/svg"><path fill="rgb(127,69,239)" stroke="rgb(127,69,239)" stroke-width="1" opacity="0.5058823529411764" d="M 43.5 0 L 42.5 2 L 43.5 0 Z "></path><path fill="rgb(127,69,239)" stroke="rgb(127,69,239)" stroke-width="1" opacity="0.5058823529411764" d="M 46.5 0 L 47.5 2 L 46.5 0 Z "></path><path fill="rgb(127,69,239)" stroke="rgb(127,69,239)" stroke-width="1" opacity="0.5058823529411764" d="M 15 4 Q 19.6 2.8 21 5.5 L 19.5 5 L 15.5 6 L 15 4 Z "></path><path fill="rgb(127,69,239)" stroke="rgb(127,69,239)" stroke-width="1" opacity="0.5058823529411764" d="M 70.5 4 Q 75 3 76 5.5 Q 76.8 9.3 74.5 10 L 75 8.5 L 75 5 L 70 5 L 70 10 L 68.5 10 L 62.5 15 L 62 13 L 64.5 13 L 69 8.5 Q 68.3 4.8 70.5 4 Z "></path><path fill="rgb(127,69,239)" stroke="rgb(127,69,239)" stroke-width="1" opacity="0.5058823529411764" d="M 30 5 L 38.5 12 L 41 10.5 L 40 13 L 31.5 6 L 30 6.5 L 30 5 Z "></path><path fill="rgb(127,69,239)" stroke="rgb(127,69,239)" stroke-width="1" opacity="0.5058823529411764" d="M 58.5 5 Q 60.8 4.3 60 6.5 L 58.5 6 L 51.5 13 Q 49.3 13.8 50 11.5 L 49.5 10 L 51.5 12 L 58.5 5 Z "></path><path fill="rgb(127,69,239)" stroke="rgb(127,69,239)" stroke-width="1" opacity="0.5058823529411764" d="M 42.5 6 L 43 7.5 L 41 8.5 L 42.5 6 Z "></path><path fill="rgb(127,69,239)" stroke="rgb(127,69,239)" stroke-width="1" opacity="0.5058823529411764" d="M 47.5 6 L 49 8.5 L 47 7.5 L 47.5 6 Z "></path><path fill="rgb(127,69,239)" stroke="rgb(127,69,239)" stroke-width="1" opacity="0.5058823529411764" d="M 20.5 8 L 25.5 13 L 28 13 L 27.5 15 L 20 10 L 20.5 8 Z "></path><path fill="rgb(127,69,239)" stroke="rgb(127,69,239)" stroke-width="1" opacity="0.5058823529411764" d="M 29.5 8 L 30 9.5 L 28.5 12 L 28 10.5 L 29.5 8 Z "></path><path fill="rgb(127,69,239)" stroke="rgb(127,69,239)" stroke-width="1" opacity="0.5058823529411764" d="M 60.5 8 L 62 11.5 L 61 11.5 L 60.5 8 Z "></path><path fill="rgb(127,69,239)" stroke="rgb(127,69,239)" stroke-width="1" opacity="0.5058823529411764" d="M 17.5 10 Q 20.1 9.2 19 12.5 L 18 12.5 L 17.5 10 Z "></path><path fill="rgb(127,69,239)" stroke="rgb(127,69,239)" stroke-width="1" opacity="0.5058823529411764" d="M 71 10 L 73 10.5 L 71.5 13 L 71 10 Z "></path><path fill="rgb(127,69,239)" stroke="rgb(127,69,239)" stroke-width="1" opacity="0.5058823529411764" d="M 19.5 14 L 20 16.5 L 19 16.5 L 19.5 14 Z "></path><path fill="rgb(127,69,239)" stroke="rgb(127,69,239)" stroke-width="1" opacity="0.5058823529411764" d="M 70.5 14 L 71 16.5 L 70 16.5 L 70.5 14 Z "></path><path fill="rgb(127,69,239)" stroke="rgb(127,69,239)" stroke-width="1" opacity="0.5058823529411764" d="M 20.5 18 L 21 20.5 L 20 20.5 L 20.5 18 Z "></path><path fill="rgb(127,69,239)" stroke="rgb(127,69,239)" stroke-width="1" opacity="0.5058823529411764" d="M 69.5 18 L 70 20.5 L 69 20.5 L 69.5 18 Z "></path><path fill="rgb(127,69,239)" stroke="rgb(127,69,239)" stroke-width="1" opacity="0.5058823529411764" d="M 21.5 22 L 22 24.5 L 21 24.5 L 21.5 22 Z "></path><path fill="rgb(127,69,239)" stroke="rgb(127,69,239)" stroke-width="1" opacity="0.5058823529411764" d="M 68.5 22 L 69 24.5 L 68 24.5 L 68.5 22 Z "></path><path fill="rgb(127,69,239)" stroke="rgb(127,69,239)" stroke-width="1" opacity="0.5058823529411764" d="M 22.5 26 L 26.5 31 L 30 32.5 L 28 33.5 L 30 34.5 L 28.5 35 L 20.5 30 L 18.5 31 L 18.5 30 L 21.5 29 L 25.5 32 L 22 27.5 L 22.5 26 Z "></path><path fill="rgb(127,69,239)" stroke="rgb(127,69,239)" stroke-width="1" opacity="0.5058823529411764" d="M 67.5 26 L 68 27.5 L 64.5 32 L 69.5 29 L 72 30.5 L 70.5 31 L 68.5 30 L 60.5 35 L 60.5 34 L 62 33.5 L 60 32.5 L 67 27.5 L 67.5 26 Z "></path><path fill="rgb(127,69,239)" stroke="rgb(127,69,239)" stroke-width="1" opacity="0.5058823529411764" d="M 16.5 31 L 14 34.5 L 3 54.5 L 6 58.5 L 3 56.5 L 2 53.5 L 13 34.5 L 16.5 31 Z "></path><path fill="rgb(127,69,239)" stroke="rgb(127,69,239)" stroke-width="1" opacity="0.5058823529411764" d="M 73.5 31 L 77 34.5 L 88 54.5 L 84.5 59 L 86 56.5 L 87 53.5 L 73.5 31 Z "></path><path fill="rgb(127,69,239)" stroke="rgb(127,69,239)" stroke-width="1" opacity="0.5058823529411764" d="M 31.5 33 L 34 33.5 L 31.5 34 L 31.5 33 Z "></path><path fill="rgb(127,69,239)" stroke="rgb(127,69,239)" stroke-width="1" opacity="0.5058823529411764" d="M 56.5 33 L 59 33.5 L 56.5 34 L 56.5 33 Z "></path><path fill="rgb(127,69,239)" stroke="rgb(127,69,239)" stroke-width="1" opacity="0.5058823529411764" d="M 36.5 34 L 42 34.5 L 36.5 35 L 36.5 34 Z "></path><path fill="rgb(127,69,239)" stroke="rgb(127,69,239)" stroke-width="1" opacity="0.5058823529411764" d="M 48.5 34 L 54 34.5 L 48.5 35 L 48.5 34 Z "></path><path fill="rgb(127,69,239)" stroke="rgb(127,69,239)" stroke-width="1" opacity="0.5058823529411764" d="M 31.5 35 L 34 35.5 L 31.5 36 L 31.5 35 Z "></path><path fill="rgb(127,69,239)" stroke="rgb(127,69,239)" stroke-width="1" opacity="0.5058823529411764" d="M 56.5 35 L 59 35.5 L 56.5 36 L 56.5 35 Z "></path><path fill="rgb(127,69,239)" stroke="rgb(127,69,239)" stroke-width="1" opacity="0.5058823529411764" d="M 36.5 36 L 54 36.5 L 36.5 37 L 36.5 36 Z "></path><path fill="rgb(127,69,239)" stroke="rgb(127,69,239)" stroke-width="1" opacity="0.5058823529411764" d="M 26.5 43 L 28.5 43 L 32 44.5 L 30.5 45 L 28.5 44 L 35.5 52 L 38 53.5 L 37.5 55 L 37 53 L 35.5 53 L 26.5 43 Z "></path><path fill="rgb(127,69,239)" stroke="rgb(127,69,239)" stroke-width="1" opacity="0.5058823529411764" d="M 60.5 43 L 62.5 44 L 64 43.5 L 54.5 53 L 53 53 L 52.5 55 L 52 53.5 L 62 44.5 L 60.5 44 L 58.5 45 L 58.5 44 L 60.5 43 Z "></path><path fill="rgb(127,69,239)" stroke="rgb(127,69,239)" stroke-width="1" opacity="0.5058823529411764" d="M 35.5 46 L 39 47.5 L 37.5 48 L 35.5 46 Z "></path><path fill="rgb(127,69,239)" stroke="rgb(127,69,239)" stroke-width="1" opacity="0.5058823529411764" d="M 53.5 46 L 55 46.5 L 51.5 48 L 51.5 47 L 53.5 46 Z "></path><path fill="rgb(127,69,239)" stroke="rgb(127,69,239)" stroke-width="1" opacity="0.5058823529411764" d="M 40.5 48 L 44 49.5 L 42.5 50 L 40.5 48 Z "></path><path fill="rgb(127,69,239)" stroke="rgb(127,69,239)" stroke-width="1" opacity="0.5058823529411764" d="M 48.5 48 L 50 48.5 L 46.5 50 L 46.5 49 L 48.5 48 Z "></path><path fill="rgb(127,69,239)" stroke="rgb(127,69,239)" stroke-width="1" opacity="0.5058823529411764" d="M 22.5 49 L 27 51.5 L 25.5 51 L 22 50 L 20.5 53 L 21 51.5 L 22.5 49 Z "></path><path fill="rgb(127,69,239)" stroke="rgb(127,69,239)" stroke-width="1" opacity="0.5058823529411764" d="M 66.5 49 L 69 50.5 L 70 52.5 L 68 51.5 Q 68.8 49.3 66.5 50 L 63.5 52 L 64.5 50 L 66.5 49 Z "></path><path fill="rgb(127,69,239)" stroke="rgb(127,69,239)" stroke-width="1" opacity="0.5058823529411764" d="M 28.5 52 L 32 54.5 L 30.5 54 L 28.5 52 Z "></path><path fill="rgb(127,69,239)" stroke="rgb(127,69,239)" stroke-width="1" opacity="0.5058823529411764" d="M 61.5 52 L 60.5 54 L 58.5 55 L 59.5 53 L 61.5 52 Z "></path><path fill="rgb(127,69,239)" stroke="rgb(127,69,239)" stroke-width="1" opacity="0.5058823529411764" d="M 19.5 54 L 19 55.5 L 18 58.5 L 24 64.5 L 24 66.5 L 19.5 72 L 21 69.5 L 23 64.5 L 17 57.5 L 19.5 54 Z "></path><path fill="rgb(127,69,239)" stroke="rgb(127,69,239)" stroke-width="1" opacity="0.5058823529411764" d="M 70.5 54 L 73 57.5 L 71 56.5 L 70.5 54 Z "></path><path fill="rgb(127,69,239)" stroke="rgb(127,69,239)" stroke-width="1" opacity="0.5058823529411764" d="M 25.5 55 L 26 56.5 L 24.5 59 L 24 57.5 L 25.5 55 Z "></path><path fill="rgb(127,69,239)" stroke="rgb(127,69,239)" stroke-width="1" opacity="0.5058823529411764" d="M 33.5 55 L 38 57.5 L 36.5 58 L 33.5 55 Z "></path><path fill="rgb(127,69,239)" stroke="rgb(127,69,239)" stroke-width="1" opacity="0.5058823529411764" d="M 64.5 55 L 66 58.5 L 65 58.5 L 64.5 55 Z "></path><path fill="rgb(127,69,239)" stroke="rgb(127,69,239)" stroke-width="1" opacity="0.5058823529411764" d="M 29.5 56 L 38 61.5 L 38 72.5 L 40.5 73 L 40.5 74 L 37 72.5 L 37 61.5 L 35.5 61 Q 30.2 59.3 29.5 56 Z "></path><path fill="rgb(127,69,239)" stroke="rgb(127,69,239)" stroke-width="1" opacity="0.5058823529411764" d="M 54.5 56 L 53.5 58 L 52 57.5 L 54.5 56 Z "></path><path fill="rgb(127,69,239)" stroke="rgb(127,69,239)" stroke-width="1" opacity="0.5058823529411764" d="M 60.5 56 L 59.5 58 L 53 61 L 53 72.5 L 51.5 74 L 49 73.5 L 52 73 L 52 61.5 L 53.5 60 L 60.5 56 Z "></path><path fill="rgb(127,69,239)" stroke="rgb(127,69,239)" stroke-width="1" opacity="0.5058823529411764" d="M 71.5 59 L 67 64.5 L 67 66.5 L 71 71.5 L 68 69.5 L 66 64.5 L 71.5 59 Z "></path><path fill="rgb(127,69,239)" stroke="rgb(127,69,239)" stroke-width="1" opacity="0.5058823529411764" d="M 6.5 60 L 7 62.5 L 5 63.5 L 6.5 60 Z "></path><path fill="rgb(127,69,239)" stroke="rgb(127,69,239)" stroke-width="1" opacity="0.5058823529411764" d="M 83.5 60 L 85 63.5 L 83 62.5 L 83.5 60 Z "></path><path fill="rgb(127,69,239)" stroke="rgb(127,69,239)" stroke-width="1" opacity="0.5058823529411764" d="M 31.5 63 L 35 65.5 L 35 74.5 L 33.5 76 L 34 74.5 L 34 65.5 L 32.5 64 L 31.5 63 Z "></path><path fill="rgb(127,69,239)" stroke="rgb(127,69,239)" stroke-width="1" opacity="0.5058823529411764" d="M 57.5 63 L 59 63.5 L 56 65.5 L 56 74.5 L 57 75.5 L 55 74.5 L 55 65.5 L 57.5 63 Z "></path><path fill="rgb(127,69,239)" stroke="rgb(127,69,239)" stroke-width="1" opacity="0.5058823529411764" d="M 4.5 65 L 4 66.5 L 2.5 69 L 3 67.5 L 4.5 65 Z "></path><path fill="rgb(127,69,239)" stroke="rgb(127,69,239)" stroke-width="1" opacity="0.5058823529411764" d="M 85.5 65 L 88 68.5 L 86 67.5 L 85.5 65 Z "></path><path fill="rgb(127,69,239)" stroke="rgb(127,69,239)" stroke-width="1" opacity="0.5058823529411764" d="M 1.5 70 L 1 71.5 L 0.5 73 L 0 71.5 L 1.5 70 Z "></path><path fill="rgb(127,69,239)" stroke="rgb(127,69,239)" stroke-width="1" opacity="0.5058823529411764" d="M 88.5 70 L 90 72.5 L 89 72.5 L 88.5 70 Z "></path><path fill="rgb(127,69,239)" stroke="rgb(127,69,239)" stroke-width="1" opacity="0.5058823529411764" d="M 18.5 73 L 23 79.5 L 21 78.5 L 18.5 73 Z "></path><path fill="rgb(127,69,239)" stroke="rgb(127,69,239)" stroke-width="1" opacity="0.5058823529411764" d="M 71.5 73 L 71 74.5 L 67.5 80 L 68 78.5 L 71.5 73 Z "></path><path fill="rgb(127,69,239)" stroke="rgb(127,69,239)" stroke-width="1" opacity="0.5058823529411764" d="M 0.5 74 L 21 96.5 L 13 89.5 L 0.5 74 Z "></path><path fill="rgb(127,69,239)" stroke="rgb(127,69,239)" stroke-width="1" opacity="0.5058823529411764" d="M 42.5 74 L 48 74.5 L 42.5 75 L 42.5 74 Z "></path><path fill="rgb(127,69,239)" stroke="rgb(127,69,239)" stroke-width="1" opacity="0.5058823529411764" d="M 89.5 74 L 85 79.5 L 68.5 99 L 68 97.5 L 89.5 74 Z "></path><path fill="rgb(127,69,239)" stroke="rgb(127,69,239)" stroke-width="1" opacity="0.5058823529411764" d="M 31.5 76 L 29.5 79 L 23.5 82 L 23.5 81 L 25.5 81 L 31.5 76 Z "></path><path fill="rgb(127,69,239)" stroke="rgb(127,69,239)" stroke-width="1" opacity="0.5058823529411764" d="M 35.5 76 L 41 78.5 L 39.5 79 L 35.5 77 L 28 83.5 L 32.5 89 L 37 89.5 L 32.5 90 L 27 83.5 L 35.5 76 Z "></path><path fill="rgb(127,69,239)" stroke="rgb(127,69,239)" stroke-width="1" opacity="0.5058823529411764" d="M 53.5 76 L 63 83.5 L 57.5 90 L 53 89.5 Q 60.3 89.8 62 84.5 L 59.5 81 L 53.5 77 L 49.5 79 L 49.5 78 L 53.5 76 Z "></path><path fill="rgb(127,69,239)" stroke="rgb(127,69,239)" stroke-width="1" opacity="0.5058823529411764" d="M 58.5 76 L 67 81.5 L 64.5 82 L 58.5 76 Z "></path><path fill="rgb(127,69,239)" stroke="rgb(127,69,239)" stroke-width="1" opacity="0.5058823529411764" d="M 39.5 88 L 44 88.5 L 39.5 89 L 39.5 88 Z "></path><path fill="rgb(127,69,239)" stroke="rgb(127,69,239)" stroke-width="1" opacity="0.5058823529411764" d="M 46.5 88 L 51 88.5 L 46.5 89 L 46.5 88 Z "></path><path fill="rgb(127,69,239)" stroke="rgb(127,69,239)" stroke-width="1" opacity="0.5058823529411764" d="M 35 91 L 37 91.5 L 36 96 L 38 96.5 L 36.5 97 Q 33.8 95.6 35 91 Z "></path><path fill="rgb(127,69,239)" stroke="rgb(127,69,239)" stroke-width="1" opacity="0.5058823529411764" d="M 53.5 91 Q 55.8 91.8 55 95.5 L 52.5 97 L 52.5 96 Q 55.5 96.9 54 92.5 L 53.5 91 Z "></path><path fill="rgb(127,69,239)" stroke="rgb(127,69,239)" stroke-width="1" opacity="0.5058823529411764" d="M 34.5 105 L 44 109.5 L 42.5 110 L 34.5 106 L 34.5 105 Z "></path><path fill="rgb(127,69,239)" stroke="rgb(127,69,239)" stroke-width="1" opacity="0.5058823529411764" d="M 54.5 105 L 56 105.5 L 46.5 110 L 46.5 109 L 54.5 105 Z "></path><path fill="rgb(0,0,0)" stroke="rgb(0,0,0)" stroke-width="1" opacity="0" d="M 0 0 L 43 0.5 L 42 4.5 L 42 6.5 L 38.5 12 L 30 5 L 28 13 L 25.5 13 L 21 8.5 Q 21.8 4.8 19.5 4 L 15 4 L 15 10 L 18 11.5 L 22 27.5 L 26.5 32 L 36.5 35 L 53.5 35 L 63.5 32 L 68 27.5 L 71 13.5 L 73.5 10 L 76 8.5 Q 76.8 4.8 74.5 4 Q 70 3 69 5.5 L 69 8.5 L 64.5 13 Q 60.8 14.3 62 10.5 L 60 5 L 51.5 12 L 47 5.5 L 48 1.5 L 47.5 0 L 223 0 L 223 110 L 48 109.5 L 62 103 L 62 98 L 64.5 98 L 69 99 L 69 97.5 L 90 74.5 L 90 71.5 L 85 64.5 L 84 59.5 L 88 53.5 L 77 34.5 L 73.5 31 L 68.5 29 Q 64.1 34.6 55.5 36 L 34.5 36 L 20.5 29 L 13 34.5 L 2 54.5 L 6 59.5 L 6 62.5 L 0.5 71 L 0 0 Z M 117 35 L 113 56 L 114 57 L 121 57 Q 123 56 123 51 L 125 58 L 125 59 L 114 59 L 112 61 L 110 71 L 110 75 L 118 75 L 119 71 L 120 67 L 134 67 L 129 37 L 128 35 L 117 35 Z M 138 35 L 145 74 L 147 75 L 154 75 L 146 39 L 146 35 L 138 35 Z M 156 35 L 152 54 L 152 61 L 156 75 L 157 74 L 164 39 L 164 35 L 156 35 Z M 175 35 L 173 37 L 169 57 L 178 57 Q 177 52 180 51 L 181 57 L 181 59 L 169 59 L 166 72 L 166 75 L 174 75 L 175 67 L 191 67 L 185 37 L 184 35 L 175 35 Z M 195 35 L 201 52 L 202 54 L 214 54 L 221 36 L 212 35 L 209 44 Q 210 47 207 46 L 204 38 L 204 35 L 195 35 Z M 201 56 L 195 74 L 196 75 L 204 75 L 207 66 Q 206 63 209 64 L 212 75 L 221 75 L 215 58 L 214 56 L 201 56 Z M 127 68 L 128 73 L 128 75 L 136 75 L 135 71 L 135 68 L 127 68 Z M 183 68 L 184 72 L 184 75 L 192 75 L 191 70 L 191 68 L 183 68 Z "></path><path fill="rgb(0,0,0)" stroke="rgb(0,0,0)" stroke-width="1" opacity="0" d="M 27.5 43 L 42.5 50 L 47.5 50 L 62.5 43 L 54.5 52 L 52 53.5 Q 50.1 58.9 53.5 58 L 68 50 L 72 58.5 L 66 64.5 L 66 66.5 L 71 73.5 L 67 81 L 64.5 81 L 56 74.5 L 56 65.5 L 57.5 64 L 66 59.5 L 65 55 Q 57.2 56.4 52 61.5 L 52 72.5 L 49.5 73 Q 47.7 75.8 41.5 74 L 38 73 L 38 61.5 L 36.5 60 L 25 55 L 24 59.5 L 34 65.5 L 34 74.5 L 32.5 76 L 25.5 81 L 23 81 L 19 72.5 L 24 66.5 L 24 64.5 L 18 57.5 L 22 50 L 38 58 Q 39.3 53.4 36.5 52 L 27.5 43 Z "></path><path fill="rgb(0,0,0)" stroke="rgb(0,0,0)" stroke-width="1" opacity="0" d="M 0.5 75 L 21 97.5 L 21 99 L 28 98 L 28 103 L 29.5 103 L 42 109.5 L 0 110 L 0.5 75 Z "></path><path fill="rgb(0,0,0)" stroke="rgb(0,0,0)" stroke-width="1" opacity="0" d="M 35.5 77 L 44 80 L 44 88 L 39.5 88 Q 38 90.5 32.5 89 L 28 83.5 L 35.5 77 Z "></path><path fill="rgb(0,0,0)" stroke="rgb(0,0,0)" stroke-width="1" opacity="0" d="M 53.5 77 L 62 83.5 L 57.5 89 L 46 88 L 46 80.5 L 47.5 80 L 53.5 77 Z "></path><path fill="rgb(0,0,0)" stroke="rgb(0,0,0)" stroke-width="1" opacity="0" d="M 37.5 91 L 40 91 Q 38.9 93.7 41.5 93 Q 42.8 95.3 47.5 94 L 50 93 Q 48.8 90 52.5 91 Q 55 92.2 54 96 L 44.5 99 L 36 96 Q 35 92.2 37.5 91 Z "></path><path fill="rgb(127,70,240)" stroke="rgb(127,70,240)" stroke-width="1" opacity="1" d="M 44.5 0 L 48 2.5 L 47 7.5 L 50 13 L 58.5 6 L 62.5 15 L 70 10 Q 67.5 2.5 75 5 Q 76 8.8 73.5 10 Q 69.3 8.7 71 13.5 L 68 25.5 L 63.5 31 L 55.5 34 L 42.5 35 L 41.5 34 L 30.5 33 L 23 27.5 L 19 10 L 15 8.5 L 16.5 5 Q 20.3 4.3 21 6.5 L 20 10 L 27.5 15 L 31.5 6 L 40 13 L 43 7.5 L 43 4.5 L 42 2.5 L 44.5 0 Z "></path><path fill="rgb(127,70,240)" stroke="rgb(127,70,240)" stroke-width="1" opacity="1" d="M 20.5 30 L 31.5 36 L 36.5 37 L 53.5 37 L 61.5 35 L 69.5 30 L 76 34.5 L 87 54.5 L 83 62.5 L 90 73.5 L 68 97.5 L 68 99 L 62 97 Q 63.3 101.6 60.5 103 L 44.5 110 L 28 101.5 Q 29.9 96.1 26.5 97 L 22.5 99 L 0 73.5 L 7 60.5 L 3 53.5 L 14 34.5 L 17.5 31 L 20.5 30 Z M 27 43 L 36 53 L 37 53 L 38 57 L 23 49 L 17 58 L 23 65 L 23 67 L 18 74 L 23 82 L 26 82 L 34 76 L 35 75 L 35 66 L 33 63 L 24 60 L 27 55 L 36 61 L 37 62 L 37 73 L 43 75 L 52 74 L 53 73 L 53 61 L 64 55 L 66 60 L 58 63 L 55 66 L 55 75 L 65 82 L 67 82 L 72 74 L 67 67 L 67 65 L 73 58 L 68 49 L 52 57 L 53 55 Q 52 52 55 53 L 64 43 L 61 43 L 46 50 L 30 43 L 27 43 Z M 36 76 L 27 84 L 33 90 L 38 89 L 44 89 L 44 81 L 36 76 Z M 54 76 L 48 79 L 46 81 L 46 89 L 58 90 L 63 84 L 54 76 Z M 35 91 L 35 96 L 43 99 L 48 99 L 55 96 Q 56 92 54 91 L 51 91 L 47 94 Q 41 95 40 91 L 35 91 Z "></path><path fill="rgb(255,255,255)" stroke="rgb(255,255,255)" stroke-width="1" opacity="0.9764705882352941" d="M 118 35 L 126.5 35 L 128 36.5 L 134 66 L 119.5 66 L 119 67.5 L 117 75 L 110.5 75 L 110 73.5 L 113 59 L 125 59 L 125 54.5 L 122.5 48 L 121 56 L 114 56 L 114 53.5 L 118 35 Z "></path><path fill="rgb(255,255,255)" stroke="rgb(255,255,255)" stroke-width="1" opacity="0.9764705882352941" d="M 139 35 L 144.5 35 L 145 36.5 L 153 75 L 146 75 L 146 71.5 L 139 40.5 L 139 35 Z "></path><path fill="rgb(255,255,255)" stroke="rgb(255,255,255)" stroke-width="1" opacity="0.9764705882352941" d="M 157 35 L 163 35 L 163 40.5 L 157 70.5 L 155.5 73 L 152 57.5 L 157 35 Z "></path><path fill="rgb(255,255,255)" stroke="rgb(255,255,255)" stroke-width="1" opacity="0.9764705882352941" d="M 174 35 L 184 35 L 184 38.5 L 190 66 L 175.5 66 L 175 68.5 L 172.5 75 L 166 74.5 L 169 59 L 182 58.5 L 179.5 48 L 178 49.5 L 177 56 L 170.5 56 L 170 54.5 L 174 35 Z "></path><path fill="rgb(255,255,255)" stroke="rgb(255,255,255)" stroke-width="1" opacity="0.9764705882352941" d="M 196 35 L 202.5 35 L 203 36.5 L 207 48 Q 210 49.3 209 45.5 L 213 35 L 219.5 35 L 220 36.5 L 212.5 54 L 202.5 54 L 202 52.5 L 196 35 Z "></path><path fill="rgb(255,255,255)" stroke="rgb(255,255,255)" stroke-width="1" opacity="0.9764705882352941" d="M 202 56 L 212.5 56 L 214 57.5 L 220 75 L 213.5 75 L 213 73.5 L 209 62 Q 206.3 60.9 207 63.5 L 203 75 L 196 75 L 196 72.5 L 202 56 Z "></path><path fill="rgb(255,255,255)" stroke="rgb(255,255,255)" stroke-width="1" opacity="0.9764705882352941" d="M 128 69 L 135 69 L 135 73.5 L 135.5 75 Q 129.5 76.5 128 73.5 L 128 69 Z "></path><path fill="rgb(255,255,255)" stroke="rgb(255,255,255)" stroke-width="1" opacity="0.9764705882352941" d="M 184 69 L 191 69 L 191 73.5 L 191.5 75 Q 184.5 76.5 185 73.5 L 184 69 Z "></path><path fill="rgb(255,255,255)" stroke="rgb(255,255,255)" stroke-width="1" opacity="0.4745098039215686" d="M 138.5 35 L 139 37.5 L 138 37.5 L 138.5 35 Z "></path><path fill="rgb(255,255,255)" stroke="rgb(255,255,255)" stroke-width="1" opacity="0.4745098039215686" d="M 163.5 35 L 164 37.5 L 163 37.5 L 163.5 35 Z "></path><path fill="rgb(255,255,255)" stroke="rgb(255,255,255)" stroke-width="1" opacity="0.4745098039215686" d="M 122.5 48 L 124 50.5 L 122 49.5 L 122.5 48 Z "></path><path fill="rgb(255,255,255)" stroke="rgb(255,255,255)" stroke-width="1" opacity="0.4745098039215686" d="M 179.5 48 L 180 50 L 178 49.5 L 179.5 48 Z "></path><path fill="rgb(255,255,255)" stroke="rgb(255,255,255)" stroke-width="1" opacity="0.4745098039215686" d="M 114.5 56 L 121 56.5 L 114.5 57 L 114.5 56 Z "></path><path fill="rgb(255,255,255)" stroke="rgb(255,255,255)" stroke-width="1" opacity="0.4745098039215686" d="M 170.5 56 L 177 56.5 L 170.5 57 L 170.5 56 Z "></path><path fill="rgb(255,255,255)" stroke="rgb(255,255,255)" stroke-width="1" opacity="0.4745098039215686" d="M 127 68 L 134 68.5 L 127.5 70 L 127 68 Z "></path><path fill="rgb(255,255,255)" stroke="rgb(255,255,255)" stroke-width="1" opacity="0.4745098039215686" d="M 184.5 68 L 191 68.5 L 183.5 70 L 184.5 68 Z "></path><path fill="rgb(255,255,255)" stroke="rgb(255,255,255)" stroke-width="1" opacity="0.4745098039215686" d="M 156.5 71 L 157 72.5 L 155 73.5 L 156.5 71 Z "></path><path fill="rgb(255,255,255)" stroke="rgb(255,255,255)" stroke-width="1" opacity="0.17647058823529413" d="M 122.5 50 L 123.5 52 L 122.5 50 Z "></path><path fill="rgb(255,255,255)" stroke="rgb(255,255,255)" stroke-width="1" opacity="0.17647058823529413" d="M 178 50 L 180 50.5 L 178 51.5 L 178 50 Z "></path><path fill="rgb(255,255,255)" stroke="rgb(255,255,255)" stroke-width="1" opacity="0.17647058823529413" d="M 119.5 66 L 134 66.5 L 119.5 67 L 119.5 66 Z "></path><path fill="rgb(255,255,255)" stroke="rgb(255,255,255)" stroke-width="1" opacity="0.17647058823529413" d="M 175.5 66 L 191 66.5 L 175.5 67 L 175.5 66 Z "></path><path fill="rgb(255,255,255)" stroke="rgb(255,255,255)" stroke-width="1" opacity="0.17647058823529413" d="M 156.5 73 L 155.5 75 L 156.5 73 Z "></path></svg>